<?xml version="1.0" encoding="utf-8"?>
<!-- Generator: Adobe Illustrator 22.0.0, SVG Export Plug-In . SVG Version: 6.00 Build 0)  -->
<svg version="1.1" id="Layer_1" xmlns="http://www.w3.org/2000/svg" xmlns:xlink="http://www.w3.org/1999/xlink" x="0px" y="0px"
	 viewBox="0 0 283.5 283.5" style="enable-background:new 0 0 283.5 283.5;" xml:space="preserve">
<style type="text/css">
	.st0{fill:#262626;stroke:#262626;stroke-miterlimit:10;}
	.st1{fill:#FFFFFF;}
	.st2{font-family:'ProximaSoft-Black';}
	.st3{font-size:87.5723px;}
	.st4{fill:#262626;}
	.st5{font-size:91.8637px;}
	.st6{fill:#B3001B;}
	.st7{clip-path:url(#SVGID_2_);fill:#F9F9F9;}
	.st8{font-family:'ProximaSoft-Regular';}
	.st9{font-size:15.751px;}
	.st10{display:none;}
	.st11{display:inline;fill:none;stroke:#FFFFFF;stroke-width:3;stroke-linecap:round;stroke-miterlimit:10;}
</style>
<polygon class="st0" points="208.9,40.7 92.2,40.7 33.9,141.7 92.2,242.7 208.9,242.7 267.2,141.7 "/>
<text transform="matrix(1 0 0 1 57.3287 161.4231)" class="st1 st2 st3">H</text>
<polyline class="st4" points="92.9,100 92.9,164.5 117.8,164.5 117.8,97.5 92.9,97.5 "/>
<text transform="matrix(0.9471 0 0 1 96.8778 162.9371)" class="st1 st2 st5">D</text>
<path class="st6" d="M214.3,153.5v-28.7l-12.1,34.1c-0.7,1.9-2.6,3.4-4.8,3.4c-2.2,0-4.1-1.5-4.8-3.4l-12.1-34.1v28.7
	c0,4.8-3.9,8.8-8.8,8.8c-4.9,0-8.8-4-8.8-8.8v-37c0-7.7,6.3-14,14-14c6.1,0,11.3,3.9,13.2,9.4l7.2,21.1l7.2-21.1
	c1.9-5.5,7.1-9.4,13.2-9.4c7.7,0,14,6.4,14,14v37c0,4.8-3.9,8.8-8.8,8.8S214.3,158.3,214.3,153.5z"/>
<rect x="212.5" y="103.8" transform="matrix(0.9933 0.1152 -0.1152 0.9933 16.996 -25.0171)" class="st0" width="25" height="61.6"/>
<g>
	<defs>
		
			<rect id="SVGID_1_" x="212.1" y="103.7" transform="matrix(0.9933 0.1152 -0.1152 0.9933 16.9839 -24.9307)" width="24.4" height="61.6"/>
	</defs>
	<clipPath id="SVGID_2_">
		<use xlink:href="#SVGID_1_"  style="overflow:visible;"/>
	</clipPath>
	<path class="st7" d="M214.3,153.5v-28.7l-12.1,34.1c-0.7,1.9-2.6,3.4-4.8,3.4c-2.2,0-4.1-1.5-4.8-3.4l-12.1-34.1v28.7
		c0,4.8-3.9,8.8-8.8,8.8c-4.9,0-8.8-4-8.8-8.8v-37c0-7.7,6.3-14,14-14c6.1,0,11.3,3.9,13.2,9.4l7.2,21.1l7.2-21.1
		c1.9-5.5,7.1-9.4,13.2-9.4c7.7,0,14,6.4,14,14v37c0,4.8-3.9,8.8-8.8,8.8S214.3,158.3,214.3,153.5z"/>
</g>
<rect x="214.1" y="101.7" transform="matrix(0.9933 0.1152 -0.1152 0.9933 14.9107 -23.9608)" class="st0" width="1.5" height="30.7"/>
<text transform="matrix(0.9471 0 0 1 102.4678 193.4619)"><tspan x="0" y="0" class="st1 st8 st9">your </tspan><tspan x="34.7" y="0" class="st6 st8 st9">it</tspan><tspan x="42.8" y="0" class="st1 st8 st9"> partner</tspan></text>
<g class="st10">
	<line class="st11" x1="142.3" y1="175.4" x2="146.5" y2="179.6"/>
	<line class="st11" x1="146.6" y1="179.6" x2="153.1" y2="172.7"/>
</g>
</svg>
