<?xml version="1.0" encoding="utf-8"?>
<!-- Generator: Adobe Illustrator 22.0.0, SVG Export Plug-In . SVG Version: 6.00 Build 0)  -->
<svg version="1.1" id="Layer_1" xmlns="http://www.w3.org/2000/svg" xmlns:xlink="http://www.w3.org/1999/xlink" x="0px" y="0px"
	 viewBox="0 0 283.5 283.5" style="enable-background:new 0 0 283.5 283.5;" xml:space="preserve">
<style type="text/css">
	.st0{fill:#262626;stroke:#262626;stroke-linejoin:round;stroke-miterlimit:10;}
	.st1{fill:#FFFFFF;}
	.st2{fill:#262626;}
	.st3{fill:#B3001B;}
	.st4{fill:#262626;stroke:#262626;stroke-miterlimit:10;}
	.st5{clip-path:url(#SVGID_2_);fill:#F9F9F9;}
	.st6{display:none;}
	.st7{display:inline;fill:none;stroke:#FFFFFF;stroke-width:3;stroke-linecap:round;stroke-miterlimit:10;}
</style>
<polygon class="st0" points="207.8,40.7 91.1,40.7 32.8,141.7 91.1,242.7 207.8,242.7 266.1,141.7 "/>
<g>
	<path class="st1" d="M104.7,153.5v-14.4H83.7v14.4c0,4.8-3.9,8.8-8.8,8.8c-4.9,0-8.8-4-8.8-8.8V111c0-4.8,3.9-8.8,8.8-8.8
		c4.9,0,8.8,4,8.8,8.8v12.7h20.9V111c0-4.8,3.9-8.8,8.8-8.8c4.9,0,8.8,4,8.8,8.8v42.5c0,4.8-3.9,8.8-8.8,8.8
		C108.6,162.3,104.7,158.3,104.7,153.5z"/>
</g>
<polyline class="st2" points="96.9,100 96.9,164.5 121.8,164.5 121.8,97.5 96.9,97.5 "/>
<g>
	<path class="st1" d="M105.6,153.1v-41.6c0-6.3,3.3-9.8,9.3-9.8h16.6c18.3,0,31.8,11,31.8,30.6c0,19.6-13.6,30.7-31.8,30.7h-16.7
		C108.9,162.9,105.6,159.4,105.6,153.1z M131.5,146.8c8.8,0,14-6.8,14-14.5c0-8.3-4.5-14.4-13.9-14.4h-8.4v28.9H131.5z"/>
</g>
<path class="st3" d="M218.3,153.5v-28.7l-12.1,34.1c-0.7,1.9-2.6,3.4-4.8,3.4c-2.2,0-4.1-1.5-4.8-3.4l-12.1-34.1v28.7
	c0,4.8-3.9,8.8-8.8,8.8c-4.9,0-8.8-4-8.8-8.8v-37c0-7.7,6.3-14,14-14c6.1,0,11.3,3.9,13.2,9.4l7.2,21.1l7.2-21.1
	c1.9-5.5,7.1-9.4,13.2-9.4c7.7,0,14,6.4,14,14v37c0,4.8-3.9,8.8-8.8,8.8S218.3,158.3,218.3,153.5z"/>
<rect x="216.5" y="103.8" transform="matrix(0.9933 0.1152 -0.1152 0.9933 17.0227 -25.4778)" class="st4" width="25" height="61.6"/>
<g>
	<defs>
		
			<rect id="SVGID_1_" x="216.1" y="103.7" transform="matrix(0.9933 0.1152 -0.1152 0.9933 17.0105 -25.3914)" width="24.4" height="61.6"/>
	</defs>
	<clipPath id="SVGID_2_">
		<use xlink:href="#SVGID_1_"  style="overflow:visible;"/>
	</clipPath>
	<path class="st5" d="M218.3,153.5v-28.7l-12.1,34.1c-0.7,1.9-2.6,3.4-4.8,3.4c-2.2,0-4.1-1.5-4.8-3.4l-12.1-34.1v28.7
		c0,4.8-3.9,8.8-8.8,8.8c-4.9,0-8.8-4-8.8-8.8v-37c0-7.7,6.3-14,14-14c6.1,0,11.3,3.9,13.2,9.4l7.2,21.1l7.2-21.1
		c1.9-5.5,7.1-9.4,13.2-9.4c7.7,0,14,6.4,14,14v37c0,4.8-3.9,8.8-8.8,8.8S218.3,158.3,218.3,153.5z"/>
</g>
<rect x="218.1" y="101.7" transform="matrix(0.9933 0.1152 -0.1152 0.9933 14.9373 -24.4214)" class="st4" width="1.5" height="30.7"/>
<g>
	<path class="st1" d="M104.8,191.5c0,0,0.1,0,0.2,0c0.5,0,0.8-0.2,1.1-0.8l0.5-1.1l-2.7-6.9c0-0.1,0-0.1,0-0.2
		c0-0.3,0.2-0.6,0.6-0.6c0.2,0,0.4,0.2,0.5,0.4l2.3,5.9l2.3-5.9c0.1-0.2,0.3-0.4,0.5-0.4c0.3,0,0.6,0.3,0.6,0.6c0,0.1,0,0.2,0,0.2
		l-3.3,8.4c-0.4,1.1-1.2,1.5-2.1,1.5c-0.1,0-0.2,0-0.3,0c-0.3,0-0.5-0.3-0.5-0.5C104.3,191.7,104.5,191.5,104.8,191.5z"/>
	<path class="st1" d="M111.6,185.7c0-2.2,1.4-4,3.6-4s3.6,1.8,3.6,4c0,2.2-1.4,4-3.6,4S111.6,187.9,111.6,185.7z M117.5,185.7
		c0-1.5-0.9-2.9-2.4-2.9s-2.4,1.4-2.4,2.9c0,1.6,0.9,2.9,2.4,2.9S117.5,187.2,117.5,185.7z"/>
	<path class="st1" d="M126.5,182.4v6.6c0,0.3-0.3,0.6-0.6,0.6c-0.3,0-0.6-0.3-0.6-0.6v-0.5c-0.6,0.6-1.5,1.2-2.6,1.2
		c-1.5,0-2.3-0.8-2.3-2.4v-4.8c0-0.3,0.3-0.6,0.6-0.6c0.3,0,0.6,0.3,0.6,0.6v4.5c0,1.3,0.6,1.7,1.6,1.7c0.9,0,1.7-0.5,2.1-1.1v-5.1
		c0-0.3,0.3-0.6,0.6-0.6C126.3,181.8,126.5,182.1,126.5,182.4z"/>
	<path class="st1" d="M132.3,182.3c0,0.3-0.2,0.5-0.6,0.6c-0.7,0-1.5,0.6-1.9,1.2v4.9c0,0.3-0.3,0.6-0.6,0.6c-0.3,0-0.6-0.3-0.6-0.6
		v-6.6c0-0.3,0.3-0.6,0.6-0.6c0.3,0,0.6,0.3,0.6,0.6v0.7c0.4-0.6,1-1.1,1.6-1.3c0.1,0,0.2-0.1,0.4-0.1
		C132.2,181.7,132.3,182,132.3,182.3z"/>
	<path class="st3" d="M137.3,179.5c0-0.4,0.3-0.8,0.7-0.8c0.4,0,0.8,0.4,0.8,0.8c0,0.4-0.3,0.8-0.8,0.8
		C137.7,180.3,137.3,180,137.3,179.5z M137.5,188.9v-6.6c0-0.3,0.3-0.6,0.6-0.6c0.3,0,0.6,0.3,0.6,0.6v6.6c0,0.3-0.3,0.6-0.6,0.6
		C137.8,189.5,137.5,189.3,137.5,188.9z"/>
	<path class="st3" d="M144,189c0,0.2-0.1,0.4-0.3,0.4c-0.3,0.2-0.6,0.3-1,0.3c-1.1,0-1.6-0.6-1.6-1.8v-5h-0.8
		c-0.3,0-0.5-0.2-0.5-0.5s0.2-0.5,0.5-0.5h0.8v-1.6c0-0.3,0.3-0.6,0.6-0.6c0.3,0,0.6,0.3,0.6,0.6v1.6h1c0.3,0,0.5,0.2,0.5,0.5
		s-0.2,0.5-0.5,0.5h-1v4.7c0,0.6,0.2,1,0.7,1c0.3,0,0.4-0.1,0.6-0.1C143.8,188.5,144,188.7,144,189z"/>
	<path class="st1" d="M155.9,185.7c0,2.5-1.3,4-3.2,4c-1,0-1.8-0.5-2.4-1.4v3.5c0,0.3-0.3,0.6-0.6,0.6c-0.3,0-0.6-0.3-0.6-0.6v-9.5
		c0-0.3,0.3-0.6,0.6-0.6c0.3,0,0.6,0.3,0.6,0.6v0.6c0.5-0.8,1.4-1.3,2.4-1.3C154.5,181.7,155.9,183.2,155.9,185.7z M154.7,185.7
		c0-1.7-0.9-2.9-2.3-2.9c-0.9,0-1.8,0.6-2.1,1.2v3.4c0.4,0.7,1.3,1.2,2.1,1.2C153.8,188.6,154.7,187.3,154.7,185.7z"/>
	<path class="st1" d="M163.3,184.2v4.7c0,0.3-0.3,0.6-0.6,0.6c-0.3,0-0.6-0.3-0.6-0.6v-0.3c-0.6,0.7-1.4,1.1-2.4,1.1
		c-1.2,0-2.5-0.9-2.5-2.5c0-1.7,1.3-2.5,2.5-2.5c1,0,1.8,0.3,2.4,1v-1.4c0-1-0.8-1.6-1.8-1.6c-0.7,0-1.3,0.2-1.9,0.8
		c-0.1,0-0.2,0.1-0.3,0.1c-0.3,0-0.5-0.2-0.5-0.5c0-0.2,0.1-0.3,0.2-0.4c0.7-0.7,1.6-1,2.6-1C162,181.7,163.3,182.4,163.3,184.2z
		 M162.2,187.9v-1.4c-0.4-0.6-1.2-0.9-2-0.9c-1,0-1.8,0.7-1.8,1.7c0,1,0.7,1.7,1.8,1.7C161,188.8,161.7,188.5,162.2,187.9z"/>
	<path class="st1" d="M169.1,182.3c0,0.3-0.2,0.5-0.6,0.6c-0.7,0-1.5,0.6-1.9,1.2v4.9c0,0.3-0.3,0.6-0.6,0.6c-0.3,0-0.6-0.3-0.6-0.6
		v-6.6c0-0.3,0.3-0.6,0.6-0.6c0.3,0,0.6,0.3,0.6,0.6v0.7c0.4-0.6,1-1.1,1.6-1.3c0.1,0,0.2-0.1,0.4-0.1
		C168.9,181.7,169.1,182,169.1,182.3z"/>
	<path class="st1" d="M173.6,189c0,0.2-0.1,0.4-0.3,0.4c-0.3,0.2-0.6,0.3-1,0.3c-1.1,0-1.6-0.6-1.6-1.8v-5h-0.8
		c-0.3,0-0.5-0.2-0.5-0.5s0.2-0.5,0.5-0.5h0.8v-1.6c0-0.3,0.3-0.6,0.6-0.6c0.3,0,0.6,0.3,0.6,0.6v1.6h1c0.3,0,0.5,0.2,0.5,0.5
		s-0.2,0.5-0.5,0.5h-1v4.7c0,0.6,0.2,1,0.7,1c0.3,0,0.4-0.1,0.6-0.1C173.4,188.5,173.6,188.7,173.6,189z"/>
	<path class="st1" d="M180.8,184.1v4.8c0,0.3-0.3,0.6-0.6,0.6c-0.3,0-0.6-0.3-0.6-0.6v-4.5c0-1.3-0.6-1.8-1.6-1.8
		c-0.9,0-1.7,0.6-2.1,1.2v5c0,0.3-0.3,0.6-0.6,0.6c-0.3,0-0.6-0.3-0.6-0.6v-6.6c0-0.3,0.3-0.6,0.6-0.6c0.3,0,0.6,0.3,0.6,0.6v0.6
		c0.5-0.6,1.5-1.3,2.6-1.3C180,181.7,180.8,182.5,180.8,184.1z"/>
	<path class="st1" d="M186.2,181.7c2.2,0,3.5,1.8,3.5,3.8c0,0.4-0.2,0.6-0.7,0.6h-5.2c0.1,1.4,1,2.6,2.6,2.6c0.7,0,1.4-0.3,1.9-0.7
		c0.1,0,0.2-0.1,0.3-0.1c0.3,0,0.5,0.2,0.5,0.5c0,0.2-0.1,0.3-0.2,0.4c-0.7,0.6-1.6,0.9-2.6,0.9c-2.1,0-3.7-1.6-3.7-4
		C182.6,183.4,184.1,181.7,186.2,181.7z M183.8,185.2h4.7c0-1.1-0.7-2.5-2.4-2.5C184.6,182.6,183.9,184,183.8,185.2z"/>
	<path class="st1" d="M195,182.3c0,0.3-0.2,0.5-0.6,0.6c-0.7,0-1.5,0.6-1.9,1.2v4.9c0,0.3-0.3,0.6-0.6,0.6c-0.3,0-0.6-0.3-0.6-0.6
		v-6.6c0-0.3,0.3-0.6,0.6-0.6c0.3,0,0.6,0.3,0.6,0.6v0.7c0.4-0.6,1-1.1,1.6-1.3c0.1,0,0.2-0.1,0.4-0.1
		C194.9,181.7,195,182,195,182.3z"/>
</g>
<g class="st6">
	<line class="st7" x1="142.3" y1="175.4" x2="146.5" y2="179.6"/>
	<line class="st7" x1="146.6" y1="179.6" x2="153.1" y2="172.7"/>
</g>
</svg>
